<svg xmlns="http://www.w3.org/2000/svg" viewBox="0 0 35.61 71.3"><defs><style>.cls-1{fill:#2e3192;}</style></defs><g id="Layer_2" data-name="Layer 2"><g id="Layer_1-2" data-name="Layer 1"><path class="cls-1" d="M32.64,9.56A19.39,19.39,0,0,0,25.52,2,15.63,15.63,0,0,0,17.2,0,15.19,15.19,0,0,0,6.81,4.42a22.45,22.45,0,0,0-5.45,9.92C-.59,20.73,0,26.35.47,30.62A62.54,62.54,0,0,0,4.83,46.9,84.8,84.8,0,0,0,18,69.31,118.06,118.06,0,0,0,30.76,45.43c3.33-8.4,4.06-13,4.36-15.67C35.66,25,36.58,16.83,32.64,9.56ZM17.5,33.75c-6.67,0-12.08-5.91-12.08-13.2S10.83,7.34,17.5,7.34s12.08,5.91,12.08,13.21S24.17,33.75,17.5,33.75Z"/><ellipse class="cls-1" cx="17.81" cy="70.3" rx="0.86" ry="1"/></g></g></svg>